<svg xmlns="http://www.w3.org/2000/svg" xmlns:xlink="http://www.w3.org/1999/xlink"><defs>
    <style>
      .cls-1 {
        fill: #c0c4d8;
        fill-rule: evenodd;
      }
    </style>
  </defs><symbol id="arrow-right" viewBox="0 0 7.969 12.969">
  
  <path id="Rounded_Rectangle_2_copy_4" data-name="Rounded Rectangle 2 copy 4" class="cls-1" d="M564.586,588.964l4.949,4.95a1.5,1.5,0,1,1-2.121,2.121l-4.95-4.95A1.5,1.5,0,0,1,564.586,588.964Zm0,12.071,4.949-4.95a1.5,1.5,0,1,0-2.121-2.121l-4.95,4.95A1.5,1.5,0,0,0,564.586,601.035Z" transform="translate(-562.031 -588.531)"/>
</symbol><symbol id="icon-close" viewBox="0 0 20 20"><path d="M.293 18.291a1 1 0 101.414 1.414L10 11.413l8.292 8.292a1 1 0 101.414-1.414l-8.292-8.292 8.292-8.292A1 1 0 1018.291.293L9.999 8.585 1.707.293A1 1 0 10.293 1.707L8.585 10 .293 18.291z"/></symbol></svg>