<svg xmlns="http://www.w3.org/2000/svg" xmlns:xlink="http://www.w3.org/1999/xlink"><defs>
    <style>
      .cls-1 {
        fill: #c0c4d8;
        fill-rule: evenodd;
      }
    </style>
  </defs><symbol id="arrow-down" viewBox="0 0 6 5">
<path fill-rule="evenodd" clip-rule="evenodd" d="M3 5L0 0H6L3 5Z" fill="currentColor"/>
</symbol><symbol id="arrow-long2" viewBox="0 0 15 3">
  <path d="M1622,686v-1h12v1h-12Z" transform="translate(-1622 -684)" fill="currentColor"/>
  <path d="M1637,685.5l-3-1.5v3l3-1.5" transform="translate(-1622 -684)" fill="currentColor"/>
</symbol><symbol id="arrow-right" viewBox="0 0 7.969 12.969">
  
  <path data-name="Rounded Rectangle 2 copy 4" class="cls-1" d="M564.586,588.964l4.949,4.95a1.5,1.5,0,1,1-2.121,2.121l-4.95-4.95A1.5,1.5,0,0,1,564.586,588.964Zm0,12.071,4.949-4.95a1.5,1.5,0,1,0-2.121-2.121l-4.95,4.95A1.5,1.5,0,0,0,564.586,601.035Z" transform="translate(-562.031 -588.531)"/>
</symbol><symbol id="cross" viewBox="0 0 11.688 11.688">
  
  <path d="M698.646,566.353l0.707-.707,11,11-0.708.707Zm11.708,0-0.708-.707-11,11,0.707,0.707Z" transform="translate(-698.656 -565.656)" fill="currentColor"/>
</symbol><symbol id="icon-close" viewBox="0 0 20 20"><path d="M.293 18.291a1 1 0 101.414 1.414L10 11.413l8.292 8.292a1 1 0 101.414-1.414l-8.292-8.292 8.292-8.292A1 1 0 1018.291.293L9.999 8.585 1.707.293A1 1 0 10.293 1.707L8.585 10 .293 18.291z" fill="currentColor"/></symbol></svg>